{"title":"Repo.Men.2010.SWESUB.DVDRip.XviD.AC3.(5.1).-Zen_Bud","uid":5701579,"size":1472666764,"categoryP":"video","categoryS":"movies","magnet":"?xt=urn:btih:0c62d81433448db53d355023901e00c047148995&amp;dn=Repo.Men.2010.SWESUB.DVDRip.XviD.AC3.%285.1%29.-Zen_Bud&amp;tr=udp%3A%2F%2Ftracker.openbittorrent.com%3A80&amp;tr=udp%3A%2F%2Fopen.demonii.com%3A1337&amp;tr=udp%3A%2F%2Ftracker.coppersurfer.tk%3A6969&amp;tr=udp%3A%2F%2Fexodus.desync.com%3A6969","seeders":1,"leechers":0,"uploader":null,"files":1,"time":1279527180,"description":"General\nComplete name                    : Repo.Men.2010.avi\nFormat                           : AVI\nFile size                        : 1.37 GiB\nDuration                         : 1h 59mn\nOverall bit rate                 : 1 642 Kbps\n\nVideo\n\nFormat                           : MPEG-4 Visual\nCodec ID/Hint                    : XviD\nDuration                         : 1h 59mn\nBit rate                         : 1 183 Kbps\nWidth                            : 720 pixels\nHeight                           : 356 pixels\nDisplay aspect ratio             : 2.35:1\nStream size                      : 1 012 MiB (72%)\nWriting library                  : XviD 1.1.2 (UTC 2006-11-01)\n\nAudio\n\nFormat                           : AC-3\nDuration                         : 1h 59mn\nBit rate                         : 448 Kbps\nChannel(s)                       : 6 channels\nChannel positions                : Front: L C R, Side: L R, LFE\nSampling rate                    : 48.0 KHz\nStream size                      : 383 MiB (27%)\n\n\n","torrent":{"xt":"urn:btih:0c62d81433448db53d355023901e00c047148995","amp;dn":"Repo.Men.2010.SWESUB.DVDRip.XviD.AC3.%285.1%29.-Zen_Bud","amp;tr":["udp%3A%2F%2Ftracker.openbittorrent.com%3A80","udp%3A%2F%2Fopen.demonii.com%3A1337","udp%3A%2F%2Ftracker.coppersurfer.tk%3A6969","udp%3A%2F%2Fexodus.desync.com%3A6969"],"infoHash":"0c62d81433448db53d355023901e00c047148995","infoHashBuffer":{"type":"Buffer","data":[12,98,216,20,51,68,141,181,61,53,80,35,144,30,0,192,71,20,137,149]},"announce":[],"urlList":[]}}